# xmcd
#
# Track frame offsets: 
#        150
#        21608
#        46152
#        74519
#        93427
#        121572
#        142653
#        161390
#        187232
#        196030
#        210857
#        229007
#        245796
#        256796
#        272327
#
# Disc length: 3761 seconds
#
# Revision: 0
# Processed by: cddbd v1.5.1PL0 Copyright (c) Steve Scherf et al.
# Submitted via: ExactAudioCopy v0.95b2
#
DISCID=c30eaf0f
DTITLE=Little Jonny And The Giants - Live
DYEAR=2000
DGENRE=Blues
TTITLE0=Heads Up
TTITLE1=To Be Alone With You
TTITLE2=Worried
TTITLE3=Mohair Sam
TTITLE4=Looks Like It's Over
TTITLE5=Littlejohn
TTITLE6=Talk To Your Daughter
TTITLE7=You Got Me
TTITLE8=Dirty Reedin
TTITLE9=The Blues You Never Lose
TTITLE10=Looks Like It's Over
TTITLE11=Wishy Washy Woman
TTITLE12=Slide Back Home
TTITLE13=Act Like You Love Me
TTITLE14=Lazy Leon
EXTD=
EXTT0=
EXTT1=
EXTT2=
EXTT3=
EXTT4=
EXTT5=
EXTT6=
EXTT7=
EXTT8=
EXTT9=
EXTT10=
EXTT11=
EXTT12=
EXTT13=
EXTT14=
PLAYORDER=
